<?xml version="1.0" encoding="utf-8"?>
<!-- Generator: Adobe Illustrator 24.1.2, SVG Export Plug-In . SVG Version: 6.00 Build 0)  -->
<svg version="1.1" id="Layer_1" xmlns="http://www.w3.org/2000/svg" xmlns:xlink="http://www.w3.org/1999/xlink" x="0px" y="0px"
	 viewBox="0 0 820 820" style="enable-background:new 0 0 820 820;" xml:space="preserve">
<style type="text/css">
	.st0{clip-path:url(#SVGID_2_);}
	.st1{clip-path:url(#SVGID_4_);}
	.st2{clip-path:url(#SVGID_6_);}
	.st3{fill-rule:evenodd;clip-rule:evenodd;fill:#0C5477;}
	.st4{clip-path:url(#SVGID_8_);}
	.st5{clip-path:url(#SVGID_10_);}
	.st6{clip-path:url(#SVGID_12_);}
	.st7{fill:#B4B5B6;}
	.st8{fill:#0C5477;}
	.st9{enable-background:new    ;}
	.st10{fill:#E6E6E6;}
</style>
<g>
	<g>
		<g>
			<defs>
				<rect id="SVGID_1_" x="34" y="37.5" width="752" height="745"/>
			</defs>
			<clipPath id="SVGID_2_">
				<use xlink:href="#SVGID_1_"  style="overflow:visible;"/>
			</clipPath>
			<g class="st0">
				<g>
					<defs>
						<path id="SVGID_3_" d="M459.47,413.85c0.3-15.03-5.38-29.51-15.8-40.25c-10.42-10.74-24.72-16.85-39.75-17
							c-15.04-0.15-29.57,5.68-40.41,16.21c-10.84,10.52-17.11,24.89-17.41,39.92c-0.63,31.31,24.24,56.95,55.55,57.25
							C432.95,470.3,458.84,445.17,459.47,413.85 M48.91,37.64l736.86,7.31l-14.79,736.97L34.12,774.6L48.91,37.64z"/>
					</defs>
					<clipPath id="SVGID_4_">
						<use xlink:href="#SVGID_3_"  style="overflow:visible;"/>
					</clipPath>
					<g class="st1">
						<g>
							<defs>
								<rect id="SVGID_5_" x="-11" y="-185.5" width="842" height="1191"/>
							</defs>
							<clipPath id="SVGID_6_">
								<use xlink:href="#SVGID_5_"  style="overflow:visible;"/>
							</clipPath>
							<g class="st2">
								<path class="st3" d="M764.2,413.29c-3.93,195.68-165.72,352.74-361.37,350.8C207.18,762.15,51.76,601.94,55.68,406.26
									C59.61,210.58,221.4,53.52,417.05,55.46C612.7,57.41,768.13,217.61,764.2,413.29z"/>
							</g>
						</g>
					</g>
				</g>
			</g>
		</g>
	</g>
	<g>
		<g>
			<defs>
				<rect id="SVGID_7_" x="218" y="229.5" width="370" height="368"/>
			</defs>
			<clipPath id="SVGID_8_">
				<use xlink:href="#SVGID_7_"  style="overflow:visible;"/>
			</clipPath>
			<g class="st4">
				<g>
					<defs>
						<path id="SVGID_9_" d="M459.47,413.28c0-31.2-25.38-56.5-56.69-56.5s-56.7,25.3-56.7,56.5c0,31.21,25.38,56.5,56.7,56.5
							C434.09,469.79,459.47,444.49,459.47,413.28 M218.52,229.65h368.5v367.27h-368.5L218.52,229.65L218.52,229.65z"/>
					</defs>
					<clipPath id="SVGID_10_">
						<use xlink:href="#SVGID_9_"  style="overflow:visible;"/>
					</clipPath>
					<g class="st5">
						<g>
							<defs>
								<rect id="SVGID_11_" x="-11" y="-185.5" width="842" height="1191"/>
							</defs>
							<clipPath id="SVGID_12_">
								<use xlink:href="#SVGID_11_"  style="overflow:visible;"/>
							</clipPath>
							<g class="st6">
								<path class="st7" d="M572.85,413.28c0,93.62-76.15,169.51-170.08,169.51s-170.08-75.9-170.08-169.51
									s76.15-169.51,170.08-169.51C496.71,243.78,572.85,319.67,572.85,413.28z"/>
							</g>
						</g>
					</g>
				</g>
			</g>
		</g>
	</g>
	<g>
		<path class="st8" d="M301.49,378.92c0,4.69-3.81,8.5-8.5,8.5c-4.7,0-8.5-3.81-8.5-8.5c0-4.7,3.81-8.5,8.5-8.5
			C297.68,370.41,301.49,374.22,301.49,378.92"/>
	</g>
	<g>
		<path class="st8" d="M478.84,504.07c0,4.7-3.8,8.5-8.5,8.5s-8.5-3.81-8.5-8.5c0-4.7,3.81-8.5,8.5-8.5S478.84,499.37,478.84,504.07
			"/>
	</g>
	<g>
		<path class="st8" d="M413.71,309.18c0,4.7-3.8,8.5-8.5,8.5s-8.5-3.8-8.5-8.5s3.81-8.5,8.5-8.5
			C409.91,300.68,413.71,304.49,413.71,309.18"/>
	</g>
	<g>
		<path class="st8" d="M346.71,503.06c0,4.7-3.81,8.5-8.5,8.5c-4.7,0-8.5-3.8-8.5-8.5s3.8-8.5,8.5-8.5S346.71,498.37,346.71,503.06"
			/>
	</g>
	<g>
		<path class="st8" d="M525.07,380.3c0,4.7-3.81,8.5-8.5,8.5c-4.7,0-8.5-3.81-8.5-8.5c0-4.7,3.8-8.5,8.5-8.5
			C521.26,371.79,525.07,375.6,525.07,380.3"/>
	</g>
	<g class="st9">
		<path class="st10" d="M138.97,436.99v17.21H74.04c0.7-6.5,2.81-12.67,6.33-18.49c3.52-5.82,10.46-13.55,20.83-23.17
			c8.35-7.78,13.47-13.05,15.36-15.82c2.55-3.82,3.82-7.6,3.82-11.34c0-4.13-1.11-7.31-3.33-9.53c-2.22-2.22-5.28-3.33-9.2-3.33
			c-3.87,0-6.94,1.16-9.23,3.49c-2.29,2.33-3.6,6.2-3.96,11.6l-18.46-1.85c1.1-10.19,4.55-17.51,10.35-21.95s13.05-6.66,21.75-6.66
			c9.54,0,17.03,2.57,22.48,7.71c5.45,5.14,8.17,11.54,8.17,19.18c0,4.35-0.78,8.49-2.34,12.43c-1.56,3.93-4.03,8.05-7.42,12.36
			c-2.24,2.86-6.28,6.97-12.13,12.33c-5.85,5.36-9.55,8.92-11.11,10.68c-1.56,1.76-2.82,3.47-3.79,5.14H138.97z"/>
	</g>
	<g class="st9">
		<path class="st10" d="M182.8,357.16c9.36,0,16.68,3.34,21.95,10.02c6.28,7.91,9.43,21.03,9.43,39.35
			c0,18.28-3.16,31.42-9.49,39.42c-5.23,6.59-12.52,9.89-21.88,9.89c-9.4,0-16.99-3.61-22.74-10.84
			c-5.76-7.23-8.64-20.12-8.64-38.66c0-18.19,3.16-31.29,9.49-39.29C166.15,360.46,173.44,357.16,182.8,357.16z M182.8,372.52
			c-2.24,0-4.24,0.71-6,2.14c-1.76,1.43-3.12,3.99-4.09,7.68c-1.27,4.79-1.91,12.85-1.91,24.19s0.57,19.13,1.71,23.37
			c1.14,4.24,2.58,7.06,4.32,8.47c1.74,1.41,3.72,2.11,5.97,2.11s4.24-0.71,6-2.14c1.76-1.43,3.12-3.99,4.09-7.68
			c1.27-4.75,1.91-12.79,1.91-24.13s-0.57-19.13-1.71-23.37c-1.14-4.24-2.58-7.08-4.32-8.5
			C187.03,373.24,185.04,372.52,182.8,372.52z"/>
	</g>
	<g class="st9">
		<path class="st10" d="M663.22,436.99v17.21h-64.93c0.7-6.5,2.81-12.67,6.33-18.49c3.52-5.82,10.46-13.55,20.83-23.17
			c8.35-7.78,13.47-13.05,15.36-15.82c2.55-3.82,3.82-7.6,3.82-11.34c0-4.13-1.11-7.31-3.33-9.53c-2.22-2.22-5.29-3.33-9.2-3.33
			c-3.87,0-6.94,1.16-9.23,3.49c-2.29,2.33-3.6,6.2-3.96,11.6l-18.46-1.85c1.1-10.19,4.55-17.51,10.35-21.95s13.05-6.66,21.75-6.66
			c9.54,0,17.03,2.57,22.48,7.71c5.45,5.14,8.17,11.54,8.17,19.18c0,4.35-0.78,8.49-2.34,12.43c-1.56,3.93-4.03,8.05-7.42,12.36
			c-2.24,2.86-6.29,6.97-12.13,12.33c-5.85,5.36-9.55,8.92-11.11,10.68c-1.56,1.76-2.82,3.47-3.79,5.14H663.22z"/>
		<path class="st10" d="M707.05,357.16c9.36,0,16.68,3.34,21.95,10.02c6.28,7.91,9.43,21.03,9.43,39.35
			c0,18.28-3.16,31.42-9.49,39.42c-5.23,6.59-12.52,9.89-21.88,9.89c-9.4,0-16.99-3.61-22.74-10.84
			c-5.76-7.23-8.64-20.12-8.64-38.66c0-18.19,3.16-31.29,9.49-39.29C690.4,360.46,697.69,357.16,707.05,357.16z M707.05,372.52
			c-2.24,0-4.24,0.71-6,2.14c-1.76,1.43-3.12,3.99-4.09,7.68c-1.28,4.79-1.91,12.85-1.91,24.19s0.57,19.13,1.71,23.37
			c1.14,4.24,2.58,7.06,4.32,8.47c1.74,1.41,3.72,2.11,5.97,2.11s4.24-0.71,6-2.14c1.76-1.43,3.12-3.99,4.09-7.68
			c1.27-4.75,1.91-12.79,1.91-24.13s-0.57-19.13-1.71-23.37c-1.14-4.24-2.58-7.08-4.32-8.5
			C711.28,373.24,709.29,372.52,707.05,372.52z"/>
	</g>
	<g class="st9">
		<path class="st10" d="M118.51,349.55H97.47v-29.08h21.04v5.63h-13.57v5.02h12.6v5.63h-12.6v7.19h13.57V349.55z"/>
		<path class="st10" d="M148.08,340.41c0,2.86-1.21,5.19-3.64,6.98c-2.43,1.79-5.73,2.69-9.89,2.69c-2.41,0-4.51-0.21-6.3-0.63
			c-1.79-0.42-3.47-0.96-5.03-1.61v-6.97h0.82c1.55,1.24,3.28,2.19,5.21,2.85c1.92,0.66,3.77,1,5.54,1c0.46,0,1.05-0.04,1.8-0.12
			s1.35-0.21,1.82-0.39c0.57-0.23,1.04-0.53,1.42-0.88s0.56-0.87,0.56-1.56c0-0.64-0.27-1.19-0.81-1.65
			c-0.54-0.46-1.33-0.82-2.37-1.06c-1.09-0.26-2.25-0.5-3.47-0.73c-1.22-0.23-2.36-0.52-3.43-0.87c-2.45-0.79-4.21-1.87-5.28-3.23
			s-1.61-3.05-1.61-5.07c0-2.71,1.21-4.92,3.64-6.63c2.43-1.71,5.55-2.57,9.37-2.57c1.91,0,3.81,0.19,5.67,0.56
			c1.87,0.37,3.49,0.84,4.85,1.4v6.7h-0.8c-1.17-0.94-2.61-1.72-4.31-2.35s-3.43-0.95-5.21-0.95c-0.63,0-1.25,0.04-1.87,0.13
			c-0.62,0.08-1.21,0.24-1.79,0.48c-0.51,0.2-0.94,0.49-1.31,0.89c-0.36,0.4-0.55,0.85-0.55,1.36c0,0.77,0.29,1.36,0.88,1.77
			s1.69,0.78,3.32,1.12c1.07,0.22,2.09,0.44,3.08,0.64c0.98,0.21,2.04,0.5,3.17,0.86c2.23,0.73,3.87,1.72,4.93,2.98
			C147.55,336.77,148.08,338.4,148.08,340.41z"/>
		<path class="st10" d="M175.97,326.09h-9.08v23.46h-7.5v-23.46h-9.08v-5.63h25.66V326.09z"/>
		<path class="st10" d="M187.65,349.55h-7.3v-7.68h7.3V349.55z"/>
	</g>
	<g>
		<path class="st8" d="M137.87,249.49l-0.71-0.24c18.38-54.63,53.19-99.93,100.66-131.01c43.83-28.7,96.42-44.44,152.06-45.52
			c56.59-1.1,111.02,12.96,157.37,40.66c49.83,29.78,86.98,73.93,107.42,127.66l-0.7,0.27C614.28,137,510.63,71.12,389.89,73.47
			C296.07,75.29,180.59,122.49,137.87,249.49z"/>
	</g>
	<g>
		<path class="st8" d="M396.5,673.86c-53.52,0-103.84-13.26-146.14-38.59c-24.33-14.57-45.69-33.02-63.48-54.82
			c-18.99-23.27-34-50.5-44.62-80.91l0.71-0.25c39.41,112.97,138.29,177.89,264.49,173.63c122.9-4.13,227.32-74.56,253.93-171.27
			l0.72,0.2c-13.56,49.27-46.44,91.91-95.1,123.29c-45.54,29.37-102.2,46.61-159.53,48.53C403.81,673.79,400.14,673.86,396.5,673.86
			z"/>
	</g>
	<g class="st9">
		<path class="st10" d="M171.7,552.72c-3.94,1.71-7.87,1.43-11.78-0.84c-3.92-2.27-7.12-6.27-9.61-12.01
			c-1.44-3.32-2.4-6.33-2.89-9.05c-0.49-2.72-0.75-5.34-0.79-7.88l9.59-4.17l0.49,1.13c-0.78,2.87-1.05,5.83-0.81,8.87
			c0.23,3.04,0.88,5.78,1.94,8.21c0.27,0.63,0.68,1.43,1.24,2.4c0.55,0.97,1.09,1.73,1.62,2.27c0.67,0.65,1.35,1.12,2.06,1.42
			c0.71,0.3,1.53,0.24,2.48-0.17c0.88-0.38,1.47-1.08,1.79-2.1c0.31-1.02,0.33-2.32,0.05-3.9c-0.3-1.66-0.65-3.4-1.06-5.21
			c-0.42-1.81-0.7-3.56-0.85-5.24c-0.37-3.84,0.06-6.91,1.29-9.2c1.23-2.29,3.23-4.04,6.01-5.25c3.73-1.62,7.49-1.27,11.3,1.05
			c3.81,2.32,6.85,6.1,9.13,11.35c1.14,2.63,2.02,5.35,2.62,8.14c0.61,2.79,0.93,5.3,0.98,7.51l-9.22,4l-0.48-1.1
			c0.59-2.17,0.81-4.62,0.67-7.33c-0.15-2.72-0.75-5.29-1.81-7.73c-0.37-0.86-0.8-1.69-1.29-2.49c-0.49-0.8-1.06-1.53-1.73-2.17
			c-0.57-0.58-1.24-1.01-2-1.27c-0.76-0.26-1.5-0.25-2.19,0.06c-1.06,0.46-1.69,1.21-1.91,2.27c-0.21,1.05-0.07,2.8,0.44,5.24
			c0.33,1.6,0.65,3.14,0.95,4.62c0.3,1.48,0.54,3.1,0.71,4.88c0.33,3.5-0.06,6.36-1.15,8.57
			C176.38,549.82,174.45,551.52,171.7,552.72z"/>
	</g>
	<g class="st9">
		<path class="st10" d="M211.04,574.9l-7.3-11.5l-29.7,18.87l-6.03-9.5l29.7-18.87l-7.3-11.5l7.12-4.53l20.64,32.5L211.04,574.9z"/>
	</g>
	<g class="st9">
		<path class="st10" d="M214.01,630.09l-9.3-10.11l3.74-19.56l-3.53-3.84l-11.77,10.83l-7.58-8.24l32.11-29.53l12.77,13.89
			c1.75,1.9,3.14,3.63,4.18,5.19c1.04,1.56,1.75,3.27,2.13,5.13c0.39,1.87,0.34,3.68-0.14,5.45c-0.49,1.76-1.59,3.44-3.32,5.02
			c-2.37,2.18-4.81,3.41-7.32,3.69c-2.51,0.28-5.19-0.15-8.06-1.28L214.01,630.09z M224.41,596.68c0.81-0.74,1.34-1.54,1.61-2.4
			c0.27-0.86,0.2-1.84-0.21-2.95c-0.29-0.77-0.75-1.56-1.38-2.35c-0.64-0.79-1.41-1.69-2.32-2.68l-2.76-3l-8.65,7.95l2.34,2.54
			c1.22,1.32,2.3,2.37,3.25,3.14c0.95,0.77,1.93,1.25,2.95,1.43c0.97,0.16,1.85,0.13,2.64-0.1S223.5,597.51,224.41,596.68z"/>
	</g>
	<g class="st9">
		<path class="st10" d="M243.55,651.85l-25.21-18.97l26.23-34.86l25.21,18.97l-5.07,6.74l-16.27-12.24l-4.53,6.02l15.1,11.36
			l-5.07,6.74l-15.1-11.36l-6.48,8.62l16.27,12.24L243.55,651.85z"/>
	</g>
	<g class="st9">
		<path class="st10" d="M287.08,674.71l-9.71-4.82l-3.26-35.05l-13.32,26.82l-9.24-4.59L270.96,618l12.04,5.98l3.13,29.46
			l11.12-22.38l9.24,4.59L287.08,674.71z"/>
	</g>
	<g class="st9">
		<path class="st10" d="M335.49,686.7c-2.09,0.2-4.78,0.22-8.09,0.07c-3.31-0.15-6.5-0.67-9.58-1.54
			c-7.14-2.02-12.18-5.54-15.13-10.57c-2.94-5.02-3.44-10.96-1.51-17.8c1.85-6.52,5.37-11.2,10.58-14.04
			c5.21-2.84,11.46-3.23,18.75-1.16c2.76,0.78,5.32,1.78,7.68,2.98c2.36,1.21,4.86,2.98,7.5,5.34l-2.79,9.84l-1.21-0.34
			c-0.41-0.54-1.03-1.32-1.84-2.33c-0.81-1.01-1.61-1.9-2.41-2.68c-0.92-0.91-2.05-1.79-3.38-2.63c-1.33-0.84-2.82-1.5-4.45-1.96
			c-1.92-0.54-3.73-0.75-5.45-0.63c-1.72,0.12-3.36,0.59-4.93,1.4c-1.5,0.79-2.84,1.96-4.02,3.5c-1.18,1.54-2.09,3.45-2.73,5.73
			c-1.31,4.64-1.09,8.54,0.68,11.7c1.76,3.16,5.05,5.42,9.86,6.78c0.41,0.12,0.87,0.24,1.38,0.36c0.5,0.12,0.97,0.22,1.39,0.3
			l2.33-8.23l-8.37-2.37l2.24-7.92l19.37,5.48L335.49,686.7z"/>
	</g>
	<g class="st9">
		<path class="st10" d="M383.06,659.91l-13.52-1.67l-4.31,34.92l-11.17-1.38l4.31-34.92l-13.52-1.67l1.03-8.37l38.21,4.72
			L383.06,659.91z"/>
	</g>
	<g class="st9">
		<path class="st10" d="M424.58,694.26l-11.25,0.25l-0.43-19.21l-16.61,0.37l0.43,19.21l-11.25,0.25l-0.97-43.61l11.25-0.25
			l0.35,15.96l16.61-0.37l-0.36-15.96l11.25-0.25L424.58,694.26z"/>
	</g>
	<g class="st9">
	</g>
	<g class="st9">
		<path class="st10" d="M486.98,668.72c0.97,4.19-0.02,8-2.96,11.44c-2.94,3.44-7.46,5.86-13.55,7.27c-3.52,0.81-6.66,1.21-9.42,1.2
			c-2.76-0.01-5.39-0.23-7.89-0.66l-2.36-10.19l1.2-0.28c2.68,1.29,5.54,2.09,8.57,2.41c3.03,0.32,5.84,0.18,8.43-0.42
			c0.67-0.15,1.53-0.41,2.59-0.78c1.06-0.37,1.9-0.76,2.52-1.18c0.76-0.54,1.35-1.13,1.77-1.76c0.42-0.64,0.52-1.46,0.29-2.47
			c-0.22-0.93-0.8-1.64-1.74-2.14c-0.95-0.49-2.22-0.75-3.83-0.75c-1.69-0.01-3.46,0.02-5.31,0.1c-1.86,0.08-3.63,0.04-5.3-0.11
			c-3.85-0.33-6.78-1.31-8.81-2.94c-2.03-1.63-3.39-3.91-4.07-6.86c-0.92-3.96,0.11-7.6,3.08-10.92c2.97-3.32,7.24-5.63,12.82-6.92
			c2.8-0.65,5.62-1.01,8.48-1.1c2.86-0.09,5.38,0.04,7.57,0.4l2.26,9.79l-1.17,0.27c-2.03-0.97-4.39-1.64-7.09-1.98
			c-2.7-0.35-5.34-0.22-7.93,0.37c-0.91,0.21-1.81,0.48-2.68,0.82s-1.69,0.77-2.45,1.3c-0.68,0.46-1.21,1.04-1.61,1.74
			c-0.4,0.7-0.51,1.43-0.34,2.17c0.26,1.12,0.89,1.88,1.88,2.29c1,0.4,2.74,0.57,5.23,0.52c1.63-0.04,3.21-0.07,4.71-0.1
			c1.51-0.03,3.15,0.03,4.93,0.18c3.5,0.31,6.24,1.21,8.21,2.69C484.97,663.58,486.3,665.79,486.98,668.72z"/>
	</g>
	<g class="st9">
		<path class="st10" d="M529.05,644.12c2.54,6.47,2.7,12.34,0.49,17.61c-2.21,5.26-6.59,9.18-13.14,11.75
			c-6.53,2.56-12.39,2.67-17.6,0.31c-5.2-2.35-9.08-6.77-11.62-13.24c-2.56-6.53-2.73-12.41-0.51-17.66
			c2.22-5.25,6.6-9.15,13.12-11.71c6.51-2.55,12.37-2.67,17.59-0.34C522.6,633.16,526.49,637.59,529.05,644.12z M519.2,659.85
			c0.53-1.63,0.71-3.39,0.55-5.27c-0.17-1.87-0.7-3.95-1.59-6.22c-0.96-2.44-2.05-4.4-3.29-5.89c-1.23-1.49-2.51-2.58-3.84-3.28
			c-1.36-0.73-2.73-1.1-4.14-1.12c-1.4-0.02-2.76,0.23-4.07,0.75c-1.33,0.52-2.48,1.25-3.47,2.18c-0.99,0.93-1.76,2.14-2.31,3.62
			c-0.51,1.38-0.7,3.07-0.57,5.09c0.13,2.02,0.66,4.21,1.59,6.57c0.95,2.42,2.03,4.37,3.26,5.85c1.22,1.48,2.5,2.58,3.83,3.3
			c1.33,0.72,2.71,1.09,4.12,1.12c1.42,0.03,2.8-0.22,4.14-0.75c1.35-0.53,2.53-1.29,3.54-2.29
			C517.97,662.52,518.72,661.3,519.2,659.85z"/>
	</g>
	<g class="st9">
		<path class="st10" d="M561.98,650.9c-2.79,1.65-5.61,2.76-8.46,3.33c-2.85,0.57-5.61,0.54-8.27-0.09
			c-2.66-0.63-5.18-1.89-7.55-3.77c-2.37-1.89-4.5-4.43-6.39-7.63c-1.76-2.98-2.91-5.94-3.44-8.89c-0.54-2.95-0.47-5.79,0.21-8.53
			c0.65-2.63,1.91-5.11,3.79-7.44c1.88-2.33,4.25-4.34,7.1-6.03c1.58-0.93,3.06-1.69,4.43-2.26c1.37-0.57,2.68-1.03,3.93-1.38
			c1.32-0.35,2.55-0.59,3.7-0.74c1.15-0.15,2.17-0.25,3.06-0.33l5.38,9.11l-1.11,0.66c-0.71-0.12-1.58-0.25-2.62-0.38
			s-2.17-0.2-3.4-0.19c-1.24,0.01-2.51,0.15-3.8,0.42c-1.29,0.27-2.55,0.76-3.78,1.49c-1.36,0.8-2.53,1.78-3.51,2.94
			c-0.97,1.15-1.69,2.53-2.15,4.14c-0.43,1.54-0.48,3.29-0.16,5.22c0.32,1.94,1.14,4.04,2.47,6.28c1.39,2.35,2.88,4.12,4.48,5.3
			c1.6,1.18,3.17,1.93,4.71,2.24c1.57,0.32,3.1,0.3,4.6-0.05c1.49-0.35,2.86-0.89,4.08-1.61c1.18-0.7,2.24-1.56,3.18-2.59
			c0.94-1.03,1.73-2.14,2.35-3.32c0.54-0.97,1-1.94,1.38-2.91c0.38-0.97,0.68-1.79,0.9-2.46l1.01-0.6l5.3,8.98
			c-0.69,0.98-1.36,1.9-2,2.78c-0.64,0.88-1.35,1.73-2.13,2.55c-1.02,1.08-2.01,2.03-2.98,2.85
			C565.28,648.83,563.86,649.79,561.98,650.9z"/>
	</g>
	<g class="st9">
		<path class="st10" d="M599.86,622.4l-19.92,15.99l-4.84-6.03l5.58-4.47l-17.62-21.96l-5.58,4.47l-4.84-6.03l19.92-15.99l4.84,6.03
			l-5.57,4.47l17.62,21.96l5.58-4.47L599.86,622.4z"/>
	</g>
	<g class="st9">
		<path class="st10" d="M628.06,592.92l-21.26,23.31l-32.23-29.39l21.26-23.31l6.23,5.69l-13.72,15.04l5.56,5.07l12.73-13.96
			l6.23,5.68l-12.73,13.96l7.97,7.27l13.72-15.04L628.06,592.92z"/>
	</g>
	<g class="st9">
		<path class="st10" d="M621.42,537.8l-7.08,11.64l30.05,18.29l-5.85,9.61l-30.05-18.29l-7.08,11.64l-7.21-4.39l20.01-32.88
			L621.42,537.8z"/>
	</g>
	<g class="st9">
		<path class="st10" d="M625.31,499.33l20.11,23.87l15.97,5.45l-3.64,10.65l-15.47-5.28l-31.09,6.65l4.14-12.12l18.96-3.46
			l-12.99-14.04L625.31,499.33z"/>
	</g>
	<g class="st9">
		<path class="st10" d="M269.77,234.29l-19.61,15.79l-17.11-10.75l-27.24,21.94l6.85,19.01l-19.13,15.41l-32.09-95.52l21.85-17.6
			L269.77,234.29z M217.62,229.51l-30.29-19.08l12.18,33.67L217.62,229.51z"/>
	</g>
	<g class="st9">
		<path class="st10" d="M368.01,205.9l-24.24,6.79l-11.5-16.62l-33.68,9.44l-1.18,20.18l-23.65,6.63l8.11-100.43l27.02-7.57
			L368.01,205.9z M321.95,180.97l-20.34-29.47l-2.06,35.74L321.95,180.97z"/>
	</g>
	<g class="st9">
		<path class="st10" d="M450.75,212.82l-68.02-4.63l6.42-94.3l24.32,1.66l-5.18,76.06l43.7,2.97L450.75,212.82z"/>
	</g>
	<g class="st9">
		<path class="st10" d="M561.05,171.29l-27.68-10.25l-26.47,71.49l-22.86-8.46l26.47-71.49l-27.68-10.25l6.35-17.14l78.22,28.96
			L561.05,171.29z"/>
	</g>
	<g class="st9">
		<path class="st10" d="M649.24,271.52c-9.52,11.67-20.43,18.22-32.72,19.63c-12.29,1.41-24.34-2.7-36.15-12.32
			c-11.77-9.6-18.2-20.57-19.29-32.89s3.13-24.33,12.66-36c9.6-11.77,20.54-18.35,32.8-19.73c12.27-1.38,24.29,2.73,36.06,12.33
			c11.74,9.58,18.18,20.53,19.33,32.84C663.07,247.7,658.85,259.75,649.24,271.52z M609.08,269.64c3.65-0.73,7.16-2.25,10.52-4.56
			c3.36-2.31,6.71-5.52,10.05-9.62c3.58-4.39,6.13-8.55,7.62-12.46c1.5-3.91,2.2-7.49,2.11-10.73c-0.07-3.33-0.83-6.33-2.29-8.99
			s-3.37-4.96-5.73-6.89c-2.39-1.95-5-3.36-7.81-4.24c-2.81-0.87-5.9-1.05-9.28-0.52c-3.14,0.5-6.54,1.94-10.21,4.33
			c-3.67,2.39-7.24,5.71-10.72,9.97c-3.56,4.36-6.09,8.48-7.59,12.36c-1.5,3.88-2.22,7.46-2.16,10.73c0.06,3.27,0.81,6.26,2.26,8.97
			c1.45,2.71,3.38,5.05,5.81,7.03c2.43,1.98,5.12,3.4,8.08,4.26C602.73,270.15,605.83,270.27,609.08,269.64z"/>
	</g>
</g>
</svg>
